<svg width="128" height="128"><path d="M121.718 73.272v9.953c3.957-7.584 6.199-16.05 6.199-24.995C127.917 26.079 99.273 0 63.958 0 28.644 0 0 26.079 0 58.23c0 .403.028.806.028 1.21l22.97-25.953h13.34l-19.76 27.187h6.42V53.77l13.728-19.477v49.361H22.998V73.272H2.158c5.951 20.284 23.608 36.208 45.998 41.399-1.44 3.3-5.618 11.263-12.565 12.674-8.607 1.764 23.358.428 46.163-13.178 17.519-4.611 31.938-15.849 39.77-30.513h-13.506V73.272H85.02V59.464l22.998-25.977h13.008l-19.429 27.187h6.421v-7.433l13.727-19.402v39.433zm-78.24 2.822a10.5 10.5 0 0 1-.996-4.535V44.548q0-2.419.996-4.535a11.7 11.7 0 0 1 2.713-3.68c1.134-1.032 2.49-1.864 4.04-2.468q2.325-.908 4.982-.908h11.292q2.655 0 4.981.908 2.282.906 3.986 2.418l-12.26 16.303v-2.898a1.96 1.96 0 0 0-.665-1.512q-.664-.604-1.66-.604-.997 0-1.661.604a1.96 1.96 0 0 0-.664 1.512v9.071L44.364 77.606a10.6 10.6 0 0 1-.886-1.512m35.73-4.535q0 2.419-.997 4.535a11.7 11.7 0 0 1-2.712 3.68c-1.134 1.032-2.49 1.864-4.04 2.469q-2.325.906-4.982.907H55.185q-2.656 0-4.981-.907c-1.55-.605-2.906-1.437-4.041-2.47a12.5 12.5 0 0 1-1.384-1.512l13.727-18.217v6.375q0 .907.665 1.512.664.604 1.66.604.997 0 1.66-.604a1.96 1.96 0 0 0 .665-1.512V53.87L75.97 36.838c.913.932 1.66 1.99 2.214 3.175q.996 2.115.996 4.535v27.011z"/></svg>