<svg viewBox="0 0 1000 1000"><path d="M635.5 530c22-12.3 42.5-27.8 60.8-46.1 52.4-52.4 81.3-122.1 81.3-196.3 0-74.1-28.9-143.8-81.3-196.3C643.8 38.9 574.1 10 500 10S356.2 38.9 303.7 91.3c-52.4 52.4-81.3 122.1-81.3 196.3 0 74.1 28.9 143.8 81.3 196.3 18.3 18.3 38.8 33.8 60.8 46.1-198.8 58.5-344 242.3-344 460h75.7C96.3 767 277 586.3 500 586.3S903.7 767.1 903.7 990h75.7c0-217.7-145.1-401.6-343.9-460zM298.1 287.6c0-111.3 90.6-201.9 201.9-201.9 111.3 0 201.9 90.6 201.9 201.9 0 111.3-90.6 201.9-201.9 201.9-111.3-.1-201.9-90.6-201.9-201.9z"/></svg>
