<svg xmlns="http://www.w3.org/2000/svg" viewBox="0 0 502.664 502.664"><path d="M132.099 230.872c55.394 0 100.088-44.759 100.088-99.937 0-55.243-44.673-99.981-100.088-99.981-55.135 0-99.808 44.738-99.808 99.981 0 55.156 44.674 99.937 99.808 99.937m80.201 16.264H52.072C23.469 247.136 0 273.431 0 305.636v160.896c0 1.769.841 3.387 1.014 5.177h262.387c.108-1.79.949-3.408.949-5.177V305.636c0-32.205-23.383-58.5-52.05-58.5m290.364-109.385c-.108-58.673-53.711-105.934-119.33-105.783-65.92.108-119.092 47.758-119.006 106.279.108 46.226 33.478 85.334 79.812 99.722l.626 202.55 38.676 27.826 40.208-28.064-.065-26.877h-18.572l-.086-26.338h18.616l-.173-29.121h-18.486l-.086-26.295h18.572l-.086-26.316h-18.551l-.065-26.316 18.637-.022-.302-41.157c46.399-14.56 79.661-53.819 79.661-100.088M383.399 77.612c14.776 0 26.899 12.101 26.899 26.856.108 14.949-12.015 27.007-26.834 27.007-14.905 0-26.942-11.886-26.942-26.877-.086-14.82 11.972-26.943 26.877-26.986"/></svg>
