<svg xmlns="http://www.w3.org/2000/svg" xmlns:xlink="http://www.w3.org/1999/xlink" width="1600" height="1200" version="1.0"><defs><linearGradient id="c"><stop offset="0" style="stop-color:#1f70de;stop-opacity:.2371134"/><stop offset="1" style="stop-color:#e0f5ff;stop-opacity:1"/></linearGradient><linearGradient id="b"><stop offset="0" style="stop-color:#00426e;stop-opacity:.26666668"/><stop offset="1" style="stop-color:#09bdff;stop-opacity:1"/></linearGradient><linearGradient id="a"><stop offset="0" style="stop-color:#00255f;stop-opacity:1"/><stop offset="1" style="stop-color:#0098e2;stop-opacity:1"/></linearGradient><linearGradient xlink:href="#a" id="d" x1="745.214" x2="751.929" y1="1200.5" y2="-371.929" gradientTransform="translate(-.522 .508)" gradientUnits="userSpaceOnUse"/><linearGradient xlink:href="#b" id="h" x1="790.39" x2="604.684" y1="910.026" y2="1688.547" gradientTransform="translate(86.533 117.04)" gradientUnits="userSpaceOnUse"/><radialGradient xlink:href="#b" id="g" cx="773.965" cy="770.329" r="1029.723" fx="773.965" fy="770.329" gradientTransform="matrix(1.0979 0 0 .55187 -177.055 346.59)" gradientUnits="userSpaceOnUse"/><radialGradient xlink:href="#b" id="f" cx="838.624" cy="474.644" r="517.727" fx="838.624" fy="474.644" gradientTransform="matrix(1 0 0 1.5179 404.755 -231.2)" gradientUnits="userSpaceOnUse"/><radialGradient xlink:href="#c" id="e" cx="425.277" cy="459.57" r="814.948" fx="425.277" fy="459.57" gradientTransform="matrix(1 0 0 .71725 -.522 127.595)" gradientUnits="userSpaceOnUse"/></defs><path d="M-.522.508h1600v1200h-1600z" style="fill:url(#d);fill-opacity:1;fill-rule:evenodd;stroke:#000;stroke-width:1px;stroke-linecap:butt;stroke-linejoin:miter;stroke-opacity:1"/><path d="M-388.643 1040.19C537.07 477.335 565.642-8.38 582.785-54.094c17.143-45.714 771.429-180 640 105.714-131.428 285.715-1605.714 985.715-1611.428 988.572z" style="opacity:.50931672;fill:url(#e);fill-opacity:1;fill-rule:evenodd;stroke:url(#radialGradient11744);stroke-width:3.0999999;stroke-linecap:butt;stroke-linejoin:round;stroke-miterlimit:4;stroke-dasharray:none;stroke-opacity:1"/><path d="M759.04 1263.187C547.613 477.473 1424.756-271.099 1424.756-271.099s157.143-200 320 531.429c162.857 731.428-982.857 1014.286-982.857 1014.286l-2.857-11.429z" style="opacity:.53763446;fill:url(#f);fill-opacity:1;fill-rule:evenodd;stroke:url(#radialGradient11742);stroke-width:1px;stroke-linecap:butt;stroke-linejoin:miter;stroke-opacity:.72131144"/><path d="M-457.141 705.3c1236.462 1085.384 2401.644 438.2 2245.529 483.273-79.242 22.879-1523.55-1037.849-1793.581-982.391-270.032 55.457-446.264 511.002-451.948 499.118z" style="opacity:.51612902;fill:url(#g);fill-opacity:1;fill-rule:evenodd;stroke:url(#radialGradient11746);stroke-width:1.34907568px;stroke-linecap:butt;stroke-linejoin:miter;stroke-opacity:1"/><path d="M1648.55 1389.172c-1241.157-323.348-1606.788-87.055-1815.72 4.974-208.933 92.03-313.399-425.326 39.796-477.559 353.195-52.233 1676.432-457.66 1900.288 146.75 223.856 604.41-129.34 325.835-124.365 325.835z" style="fill:url(#h);fill-opacity:1;fill-rule:evenodd;stroke:url(#linearGradient11758);stroke-width:1px;stroke-linecap:butt;stroke-linejoin:miter;stroke-opacity:1"/></svg>
