<svg width="128" height="128"><path d="M127.88 73.143q0 2.118-1.518 3.669-1.517 1.55-3.592 1.55h-17.887q0 13.944-5.35 23.645l16.609 17.044q1.517 1.55 1.517 3.67 0 2.118-1.517 3.668-1.436 1.55-3.593 1.55t-3.593-1.55l-15.811-16.063a16 16 0 0 1-1.196 1.06q-.798.651-3.353 2.322a50 50 0 0 1-5.192 2.974q-2.637 1.305-6.546 2.364-3.91 1.06-7.748 1.06V47.044H58.89v73.062q-4.073 0-8.106-1.102-4.032-1.1-6.945-2.692a67 67 0 0 1-5.268-3.179q-2.357-1.585-3.476-2.65L33.9 109.34l-14.611 16.877q-1.6 1.71-3.833 1.711-1.916 0-3.434-1.304-1.518-1.467-1.635-3.627-.119-2.16 1.236-3.794l16.129-18.51q-4.63-9.295-4.63-22.342H5.235q-2.074 0-3.592-1.55C.125 75.251.125 74.545.125 73.132q0-2.118 1.518-3.668t3.592-1.55h17.887V43.939L9.308 29.833q-1.517-1.55-1.517-3.669t1.517-3.668q1.518-1.55 3.593-1.55c2.075 0 2.58.516 3.593 1.55l13.813 14.106h67.396l13.814-14.106q1.519-1.55 3.592-1.55 2.076 0 3.593 1.55 1.518 1.55 1.518 3.668 0 2.12-1.518 3.67l-13.814 14.105v23.975h17.887q2.074 0 3.593 1.55 1.517 1.55 1.517 3.668l-.005.01zM89.552 26.175H38.448q0-10.845 7.466-18.469T64 .082t18.086 7.624q7.466 7.625 7.466 18.469"/></svg>