<svg xmlns="http://www.w3.org/2000/svg" viewBox="-295 387 20 20"><path d="M-280 402c-1.1 0-2 .9-2 2s.9 2 2 2 2-.9 2-2-.9-2-2-2m-10 0c-1.1 0-2 .9-2 2s.9 2 2 2 2-.9 2-2-.9-2-2-2m10.9-7c-1.9 0-3.5-1.6-3.5-3.5q0-.75.3-1.5h-8.7v-1.6c0-.2-.2-.4-.4-.4h-3.2c-.2 0-.4.2-.4.4v1.6h2l1.9 9 .1.9v1.6c0 .2.2.4.4.4h13.2c.2 0 .4-.2.4-.4V400h-11.2c-1.2 0-1.2-.5-.2-.8l11.1-3.2c.2-.1.4-.3.4-.5v-1.2c-.7.4-1.4.7-2.2.7"/><path d="M-279.1 387.3c-1.8 0-3.3 1.1-3.9 2.7q-.3.75-.3 1.5c0 2.3 1.8 4.1 4.1 4.1q1.2 0 2.1-.6c1.2-.7 2-2 2-3.5.1-2.3-1.7-4.2-4-4.2m2.1 6.9c-.6.5-1.3.7-2.1.7-1.9 0-3.5-1.6-3.5-3.5q0-.75.3-1.5c.6-1.2 1.8-2 3.2-2 1.9 0 3.5 1.6 3.5 3.5 0 1.2-.6 2.2-1.4 2.8"/><path d="M-279.6 388.8h1.1v5.3h-1.1z"/><path d="m-276.294 392.061-5.3.047-.01-1.1 5.3-.047z"/></svg>
