<svg xmlns="http://www.w3.org/2000/svg" width="128" height="128"><path d="M54.857 118.857h64V73.143H89.143q-2.853 0-4.855-2.002-2.002-2.003-2.002-4.855V36.57H54.857v82.286zM73.143 16v-4.571a2.2 2.2 0 0 0-.677-1.61 2.2 2.2 0 0 0-1.609-.676H20.571q-.932 0-1.609.676a2.2 2.2 0 0 0-.676 1.61V16a2.2 2.2 0 0 0 .676 1.61q.677.675 1.61.676h50.285q.933 0 1.61-.677.675-.675.676-1.609m18.286 48h21.357L91.43 42.642V64zM128 73.143v48q0 2.853-2.002 4.855T121.143 128H52.57q-2.852 0-4.854-2.002t-2.003-4.855v-11.429H6.857q-2.853 0-4.855-2.002T0 102.857v-96q0-2.853 2.002-4.855T6.857 0h77.714q2.853 0 4.855 2.002t2.003 4.855V30.29q1.5.933 2.569 2.003l29.147 29.147q2.002 2.002 3.429 5.43 1.425 3.43 1.426 6.291z"/></svg>
