<svg xmlns="http://www.w3.org/2000/svg" width="128" height="128"><path d="M115.147.062a13 13 0 0 1 4.94.945q2.325.945 4.069 2.688a13.2 13.2 0 0 1 2.761 4.069q1.017 2.325 1.017 5.086v102.3q0 5.522-3.56 9.155t-8.937 3.633H12.992q-5.813 0-9.373-3.779t-3.56-9.445V12.704q0-5.086 3.488-8.863 3.488-3.78 9.3-3.779zM81.434 109.047q2.616 0 3.778-1.235 1.163-1.236 1.163-3.27 0-1.89-1.163-3.197-1.162-1.308-3.778-1.307H72.57q.145-.291.145-.872V27.09h9.01q2.614 0 3.633-1.308 1.017-1.308 1.017-3.197t-1.017-3.197q-1.019-1.308-3.633-1.308H46.268q-2.615 0-3.632 1.308t-1.018 3.197q0 1.89 1.018 3.197 1.017 1.308 3.632 1.308h8.138v72.075q0 .29.073.436.072.145.072.436H46.56q-2.616 0-3.778 1.307-1.163 1.308-1.163 3.197 0 2.034 1.163 3.27 1.162 1.235 3.778 1.235h34.875z"/></svg>
