<svg xmlns="http://www.w3.org/2000/svg" width="128" height="128"><path d="M83.287 103.01c-1.57-3.84-6.778-10.414-15.447-19.548-2.327-2.444-2.182-4.306-1.338-9.862v-.64c.553-3.81 1.513-6.05 14.313-8.087 6.516-1.018 8.203 1.57 10.589 5.178l.785 1.193a12.63 12.63 0 0 0 6.43 5.207c1.134.524 2.53 1.164 4.421 2.24 4.596 2.53 4.596 5.41 4.596 11.753v.727a26.9 26.9 0 0 1-5.178 17.454 59 59 0 0 1-19.025 11.026c3.49-6.546.814-14.313 0-16.553zM64 5.12a58.5 58.5 0 0 1 25.484 5.818 54.3 54.3 0 0 0-12.859 10.327c-.93 1.28-1.716 2.473-2.472 3.579-2.444 3.694-3.637 5.352-5.818 5.614a25 25 0 0 1-4.219 0c-4.276-.29-10.094-.64-11.956 4.422-1.193 3.23-1.396 11.956 2.444 16.495.66 1.077.778 2.4.32 3.578a7 7 0 0 1-2.066 3.229 19 19 0 0 1-2.909-2.91 18.9 18.9 0 0 0-8.32-6.603c-1.25-.349-2.647-.64-3.985-.93-3.782-.786-8.03-1.688-9.019-3.812a14.9 14.9 0 0 1-.727-5.818 21.9 21.9 0 0 0-1.396-9.25 8.87 8.87 0 0 0-5.557-4.946A58.7 58.7 0 0 1 64 5.12M0 64c0 35.346 28.654 64 64 64s64-28.654 64-64S99.346 0 64 0 0 28.654 0 64"/></svg>
