<svg xmlns="http://www.w3.org/2000/svg" viewBox="0 0 230 230"><path d="M95 70h120c8.284 0 15-6.716 15-15s-6.716-15-15-15H95c-8.284 0-15 6.716-15 15s6.716 15 15 15zM215 100H95c-8.284 0-15 6.716-15 15s6.716 15 15 15h120c8.284 0 15-6.716 15-15s-6.716-15-15-15zM215 160H95c-8.284 0-15 6.716-15 15s6.716 15 15 15h120c8.284 0 15-6.716 15-15s-6.716-15-15-15zM15 160c-3.95 0-7.811 1.6-10.61 4.39A15.13 15.13 0 000 175c0 3.95 1.6 7.81 4.39 10.61C7.189 188.4 11.05 190 15 190s7.81-1.6 10.609-4.39A15.13 15.13 0 0030 175c0-3.95-1.601-7.81-4.391-10.61A15.125 15.125 0 0015 160zM15 100c-3.95 0-7.811 1.6-10.61 4.39A15.13 15.13 0 000 115c0 3.95 1.6 7.81 4.39 10.61C7.189 128.4 11.05 130 15 130s7.81-1.6 10.609-4.39A15.13 15.13 0 0030 115c0-3.95-1.601-7.81-4.391-10.61A15.125 15.125 0 0015 100zM15 40c-3.95 0-7.811 1.6-10.61 4.39A15.13 15.13 0 000 55c0 3.95 1.6 7.81 4.39 10.61C7.189 68.4 11.05 70 15 70s7.81-1.6 10.609-4.39A15.13 15.13 0 0030 55c0-3.95-1.601-7.81-4.391-10.61A15.125 15.125 0 0015 40z"/></svg>