<svg xmlns="http://www.w3.org/2000/svg" viewBox="0 0 1000 1000"><path stroke="#000" stroke-width="25" d="M500 990C229.4 990 10 770.6 10 500S229.4 10 500 10c270.7 0 490 219.4 490 490S770.7 990 500 990zm0-930.6c-243 0-440.7 197.5-440.7 440.3C59.3 742.4 257 940.9 500 940.9s440.7-198.5 440.7-441.3C940.7 256.9 743 59.4 500 59.4zm220.6 465.3H279.7c-13.6 0-24.5-11-24.5-24.5 0-13.6 10.9-24.5 24.5-24.5h440.8c13.5 0 24.5 11 24.5 24.5.1 13.5-10.9 24.5-24.4 24.5zm0 146.9H279.7c-13.6 0-24.5-11-24.5-24.5s10.9-24.5 24.5-24.5h440.8c13.5 0 24.5 11 24.5 24.5.1 13.5-10.9 24.5-24.4 24.5zm0-318.4H279.7c-13.6 0-24.5-11-24.5-24.5 0-13.6 10.9-24.5 24.5-24.5h440.8c13.5 0 24.5 11 24.5 24.5.1 13.5-10.9 24.5-24.4 24.5z"/></svg>
