<svg xmlns="http://www.w3.org/2000/svg" viewBox="0 0 1000 1000"><path d="M500 990C229.8 990 10 770.2 10 500S229.8 10 500 10s490 219.8 490 490c0 161.8-79.8 313.1-213.5 404.6-16 11-37.9 6.9-48.9-9.2-11-16-6.9-37.9 9.2-48.9 114.5-78.4 183-207.9 183-346.6 0-231.4-188.3-419.6-419.6-419.6S80.4 268.6 80.4 500 268.6 919.6 500 919.6c19.4 0 35.2 15.7 35.2 35.2S519.4 990 500 990zm263.8-592.6H406.2c-19.4 0-35.2-15.7-35.2-35.2 0-19.4 15.7-35.2 35.2-35.2h357.6c19.4 0 35.2 15.7 35.2 35.2 0 19.5-15.8 35.2-35.2 35.2zm0 140.7H236.2c-19.4 0-35.2-15.7-35.2-35.2 0-19.4 15.7-35.2 35.2-35.2h527.6c19.4 0 35.2 15.7 35.2 35.2 0 19.5-15.8 35.2-35.2 35.2zm0 134.9H541c-19.4 0-35.2-15.7-35.2-35.2s15.7-35.2 35.2-35.2h222.8c19.4 0 35.2 15.7 35.2 35.2 0 19.4-15.8 35.2-35.2 35.2z"/></svg>