<svg viewBox="0 0 458 458"><path d="M428 41.533H30c-16.568 0-30 13.432-30 30v252c0 16.568 13.432 30 30 30h132.1l43.942 52.243a30 30 0 0045.918.001l43.942-52.243H428c16.569 0 30-13.432 30-30v-252c0-16.569-13.431-30.001-30-30.001zm0 282H281.933L229 386.465l-52.932-62.932H30v-252h398v252z"/><path d="M85.402 156.999h137c8.284 0 15-6.716 15-15s-6.716-15-15-15h-137c-8.284 0-15 6.716-15 15s6.716 15 15 15zm-14.402 77c0 8.284 6.716 15 15 15h286c8.284 0 15-6.716 15-15s-6.716-15-15-15H86c-8.284 0-15 6.716-15 15z"/></svg>
