<svg xmlns="http://www.w3.org/2000/svg" viewBox="0 0 1000 1000"><path d="M201.36 356.31C164.4 381.15 16.75 485.39 13.81 488.71c-5.08 5.68-5.08 18.39 0 23.28 2.15 2.15 46.94 33.83 99.54 70.6 62.78 43.81 97.59 67.08 101.89 67.86 5.08.78 7.63-.2 12.91-4.89l6.65-5.87.59-133.77c.39-73.53 0-136.51-.59-140.22-2.93-16.23-17.4-20.34-33.44-9.39zm-2.73 144.33v96.02l-5.28-3.52c-25.23-16.42-130.64-91.52-130.64-93.08 0-1.76 131.62-95.24 134.55-95.44.78 0 1.37 43.22 1.37 96.02zM770.67 354.55c-2.54 2.54-5.08 7.63-5.87 11.15-.59 3.72-.98 66.69-.59 140.22l.59 133.77 6.65 5.87c5.28 4.69 7.82 5.67 12.91 4.89 9-1.57 199.87-135.14 203.78-142.77 3.52-6.84 1.96-15.06-3.91-20.54-4.89-4.5-185.99-131.62-192.44-134.94-7.04-3.9-16.04-2.73-21.12 2.35zm99.93 97.2c37.16 26.01 67.28 47.91 66.88 48.89-.39 1.17-112.65 80.38-132.01 93.29l-4.5 2.74v-96.02c0-52.8.59-96.02 1.17-96.02.6-.01 31.5 21.31 68.46 47.12zM488.46 426.13c-24.06 3.52-45.96 20.15-56.91 43.03-4.5 9.39-5.08 13.3-5.08 31.29 0 18.58.59 21.71 5.48 31.68 7.63 15.45 20.34 27.97 36.18 35.4 11.93 5.67 14.86 6.26 31.68 6.26 16.62 0 19.95-.59 31.29-6.06 15.25-7.23 28.55-20.34 36.38-35.59 5.28-10.17 5.67-12.91 5.67-31.68 0-17.21-.78-22.1-4.5-30.12-14.48-31.5-46.16-48.9-80.19-44.21zm21.71 37.36c16.82 4.5 30.51 25.42 27.38 41.46-3.91 20.34-18.19 32.66-37.74 32.66-42.63 0-52.61-59.06-12.52-73.34 9.38-3.33 13.29-3.52 22.88-.78z"/></svg>
