<svg viewBox="0 0 1000 1000"><path d="M489.44 13.48c-3.91 3.13-102.09 141.4-133.77 188.53-8.21 11.93-8.41 19.17-.78 26.79l5.67 5.67h279.66l5.09-6.06c2.93-3.52 5.08-8.41 5.08-11.73 0-4.3-16.23-28.75-67.67-102.48-37.16-53.19-69.82-98.57-72.55-100.72-6.46-4.89-14.28-5.08-20.73 0zm58.28 114.61c25.82 37.16 47.13 68.25 47.52 69.04.2.78-42.63 1.57-95.44 1.57-52.8 0-95.83-.59-95.44-1.57.98-2.93 94.46-136.51 95.44-136.51.59-.01 22.1 30.31 47.92 67.47zM201.36 356.31C164.4 381.15 16.75 485.39 13.81 488.71c-5.08 5.68-5.08 18.39 0 23.28 2.15 2.15 46.94 33.83 99.54 70.6 62.78 43.81 97.59 67.08 101.89 67.86 5.08.78 7.63-.2 12.91-4.89l6.65-5.87.59-133.77c.39-73.53 0-136.51-.59-140.22-2.93-16.23-17.4-20.34-33.44-9.39zm-2.73 144.33v96.02l-5.28-3.52c-25.23-16.42-130.64-91.52-130.64-93.08 0-1.76 131.62-95.24 134.55-95.44.78 0 1.37 43.22 1.37 96.02zm572.04-146.09c-2.54 2.54-5.08 7.63-5.87 11.15-.59 3.72-.98 66.69-.59 140.22l.59 133.77 6.65 5.87c5.28 4.69 7.82 5.67 12.91 4.89 9-1.57 199.87-135.14 203.78-142.77 3.52-6.84 1.96-15.06-3.91-20.54-4.89-4.5-185.99-131.62-192.44-134.94-7.04-3.9-16.04-2.73-21.12 2.35zm99.93 97.2c37.16 26.01 67.28 47.91 66.88 48.89-.39 1.17-112.65 80.38-132.01 93.29l-4.5 2.74v-96.02c0-52.8.59-96.02 1.17-96.02.6-.01 31.5 21.31 68.46 47.12zm-382.14-25.62c-24.06 3.52-45.96 20.15-56.91 43.03-4.5 9.39-5.08 13.3-5.08 31.29 0 18.58.59 21.71 5.48 31.68 7.63 15.45 20.34 27.97 36.18 35.4 11.93 5.67 14.86 6.26 31.68 6.26 16.62 0 19.95-.59 31.29-6.06 15.25-7.23 28.55-20.34 36.38-35.59 5.28-10.17 5.67-12.91 5.67-31.68 0-17.21-.78-22.1-4.5-30.12-14.48-31.5-46.16-48.9-80.19-44.21zm21.71 37.36c16.82 4.5 30.51 25.42 27.38 41.46-3.91 20.34-18.19 32.66-37.74 32.66-42.63 0-52.61-59.06-12.52-73.34 9.38-3.33 13.29-3.52 22.88-.78zM358.8 767.4c-5.87 3.13-10.36 12.71-9.19 19.17.98 4.69 133.77 196.16 139.44 200.85 5.08 4.3 17.8 3.52 22.29-.98 2.15-2.15 34.22-47.33 71.38-100.52 43.22-61.6 67.67-98.37 67.67-101.3 0-7.63-5.28-15.65-11.93-17.99-4.3-1.56-47.13-2.15-140.42-2.15-112.06.18-134.94.57-139.24 2.92zm236.83 35.01c0 2.34-94.26 135.14-95.83 135.14-1.56 0-95.83-132.79-95.83-135.14 0-.39 43.22-.78 95.83-.78 52.81-.01 95.83.39 95.83.78z"/></svg>
