<?xml version="1.0" encoding="utf-8"?>
<!-- Generator: Adobe Illustrator 19.1.0, SVG Export Plug-In . SVG Version: 6.00 Build 0)  -->
<svg version="1.1" xmlns="http://www.w3.org/2000/svg" xmlns:xlink="http://www.w3.org/1999/xlink" x="0px" y="0px"
	 viewBox="-295 387 20 20" style="enable-background:new -295 387 20 20; fill:#242224" xml:space="preserve">
<g id="Shopping_cart">
	<path d="M-280,402c-1.1,0-2,0.9-2,2c0,1.1,0.9,2,2,2c1.1,0,2-0.9,2-2C-278,402.9-278.9,402-280,402z M-290,402c-1.1,0-2,0.9-2,2
		c0,1.1,0.9,2,2,2c1.1,0,2-0.9,2-2C-288,402.9-288.9,402-290,402z M-279.1,395c-1.9,0-3.5-1.6-3.5-3.5c0-0.5,0.1-1,0.3-1.5h-8.7
		v-1.6c0-0.2-0.2-0.4-0.4-0.4h-3.2c-0.2,0-0.4,0.2-0.4,0.4v1.6h2l1.9,9l0.1,0.9v1.6c0,0.2,0.2,0.4,0.4,0.4h13.2
		c0.2,0,0.4-0.2,0.4-0.4V400h-11.2c-1.2,0-1.2-0.5-0.2-0.8l11.1-3.2c0.2-0.1,0.4-0.3,0.4-0.5v-1.2C-277.6,394.7-278.3,395-279.1,395
		z"/>
</g>
<g id="Layer_2">
	<path d="M-279.1,387.3c-1.8,0-3.3,1.1-3.9,2.7c-0.2,0.5-0.3,1-0.3,1.5c0,2.3,1.8,4.1,4.1,4.1c0.8,0,1.5-0.2,2.1-0.6
		c1.2-0.7,2-2,2-3.5C-275,389.2-276.8,387.3-279.1,387.3z M-277,394.2c-0.6,0.5-1.3,0.7-2.1,0.7c-1.9,0-3.5-1.6-3.5-3.5
		c0-0.5,0.1-1,0.3-1.5c0.6-1.2,1.8-2,3.2-2c1.9,0,3.5,1.6,3.5,3.5C-275.6,392.6-276.2,393.6-277,394.2z"/>
</g>
<g id="Layer_3">
	<rect x="-279.6" y="388.8" width="1.1" height="5.3"/>
	<rect x="-281.7" y="390.9" transform="matrix(-1 8.778972e-03 -8.778972e-03 -1 -554.5623 785.4343)" width="5.3" height="1.1"/>
	<rect x="-279.3" y="391.5" width="0" height="0"/>
</g>
</svg>
