<svg width="612" height="612"><path d="M305.016 224.064v252.192l200.778-38.103V315.277c0-5.144 4.48-9.139 9.59-8.553l24.701 3.822a8.61 8.61 0 017.627 8.553v142.748a8.609 8.609 0 01-6.8 8.417l-219.787 47.258a77.494 77.494 0 01-32.235.072L71.462 471.859a8.609 8.609 0 01-6.834-8.201l-3.756-144.974a8.608 8.608 0 017.852-8.798l184.692-16.229a8.61 8.61 0 007.207-5.297l27.824-67.573c3.59-8.72 16.569-6.152 16.569 3.277zm-246.233-82.57L.825 265.38c-2.832 6.054 2.014 12.885 8.663 12.213L227.149 255.6a8.608 8.608 0 007.003-5.073l70.035-157.78-239.161 43.928a8.612 8.612 0 00-6.243 4.819zm245.405-48.747l74.106 162.712a8.608 8.608 0 007.145 5.013l217.25 17.471c6.547.526 11.248-6.178 8.522-12.154l-56.658-124.212a8.61 8.61 0 00-6.308-4.9l-244.057-43.93z"/></svg>
