<svg xmlns="http://www.w3.org/2000/svg" xmlns:xlink="http://www.w3.org/1999/xlink" width="50" height="50"><defs><filter id="a" width="112.4%" height="117.4%" x="-5.7%" y="-8.7%" filterUnits="objectBoundingBox"><feOffset dx="2" in="SourceAlpha" result="shadowOffsetOuter1"/><feGaussianBlur in="shadowOffsetOuter1" result="shadowBlurOuter1" stdDeviation="7.5"/><feColorMatrix in="shadowBlurOuter1" values="0 0 0 0 0 0 0 0 0 0 0 0 0 0 0 0 0 0 0.15 0"/></filter><path id="b" d="M2 0h327.586a1 1 0 0 1 .707.293l49.414 49.414a1 1 0 0 1 .293.707V268a2 2 0 0 1-2 2H2a2 2 0 0 1-2-2V2a2 2 0 0 1 2-2Z"/></defs><g fill="none" fill-rule="evenodd" transform="translate(-330)"><rect width="380" height="270" fill="#FFF" rx="2"/><path fill="#000" fill-opacity=".9" d="M366.833 10.833v2.334h2.334v-2.334h-2.334Zm-7 16.334h2.334V29.5h-2.334v-2.333Zm9.334-9.334h2.333v2.334h-2.333v-2.334Zm-9.334 4.667h2.334v2.333h-2.334V22.5Zm4.667-4.667h2.333v2.334H364.5v-2.334ZM351.667 8.5H361c.644 0 1.167.522 1.167 1.167V19c0 .644-.523 1.167-1.167 1.167h-9.333A1.167 1.167 0 0 1 350.5 19V9.667c0-.645.522-1.167 1.167-1.167Zm1.166 2.333v7h7v-7h-7Zm2.334 2.334h2.333V15.5h-2.333v-2.333Zm10.5-4.667h4.666c.645 0 1.167.522 1.167 1.167v4.666c0 .645-.522 1.167-1.167 1.167h-4.666a1.167 1.167 0 0 1-1.167-1.167V9.667c0-.645.522-1.167 1.167-1.167Zm0 14h4.666c.645 0 1.167.522 1.167 1.167v4.666c0 .645-.522 1.167-1.167 1.167h-4.666a1.167 1.167 0 0 1-1.167-1.167v-4.666c0-.645.522-1.167 1.167-1.167Zm1.166 2.333v2.334h2.334v-2.334h-2.334ZM351.667 22.5h4.666c.645 0 1.167.522 1.167 1.167v4.666c0 .645-.522 1.167-1.167 1.167h-4.666a1.167 1.167 0 0 1-1.167-1.167v-4.666c0-.645.522-1.167 1.167-1.167Zm1.166 2.333v2.334h2.334v-2.334h-2.334Z" opacity=".5"/><use xlink:href="#b" fill="#000" filter="url(#a)"/><use xlink:href="#b" fill="#FFF"/></g></svg>
