<svg xmlns="http://www.w3.org/2000/svg" width="128" height="128"><path d="M42.913 101.36q2.463 0 4.667.996a12.3 12.3 0 0 1 3.89 2.772q1.685 1.776 2.592 4.193.908 2.418.908 5.118t-.908 5.118q-.907 2.417-2.593 4.194a13.3 13.3 0 0 1-3.889 2.843 10.6 10.6 0 0 1-4.667 1.066q-2.593 0-4.732-1.066a13.6 13.6 0 0 1-3.825-2.843q-1.685-1.777-2.593-4.194a14.4 14.4 0 0 1-.907-5.118q0-2.7.907-5.118.908-2.416 2.593-4.193a12.5 12.5 0 0 1 3.825-2.772q2.139-.996 4.732-.996m53.932.285q2.464 0 4.733.995a11.4 11.4 0 0 1 3.889 2.772q1.62 1.778 2.593 4.194t.972 5.118q0 2.7-.972 5.117-.973 2.417-2.593 4.194a12.3 12.3 0 0 1-3.89 2.843 11 11 0 0 1-4.732 1.066 10.6 10.6 0 0 1-4.667-1.066 12.5 12.5 0 0 1-3.824-2.843q-1.62-1.778-2.593-4.194a13.6 13.6 0 0 1-.973-5.117q0-2.701.973-5.118.972-2.417 2.593-4.194a11.6 11.6 0 0 1 3.824-2.772 11.2 11.2 0 0 1 4.667-.995m21.781-80.747q3.63 0 5.64 1.066 2.01 1.065 2.852 2.63a6.43 6.43 0 0 1 .778 3.34q-.066 1.777-.454 3.057-.39 1.28-1.62 5.26a589 589 0 0 1-2.788 8.743 1236 1236 0 0 0-3.047 9.453q-1.49 4.692-2.269 7.393-1.685 5.685-4.278 7.89-2.592 2.203-6.352 2.203H39.023l1.945 12.795h65.342q6.222 0 6.223 5.828 0 2.843-1.232 4.905-1.232 2.061-4.862 2.061H38.505q-2.593 0-4.343-1.28-1.751-1.279-2.917-3.34a21.3 21.3 0 0 1-1.88-4.478 44 44 0 0 1-1.102-4.55q-.13-.852-.713-4.122-.585-3.27-1.426-8.174l-1.88-10.947q-1.038-6.041-2.075-12.154-2.463-14.358-5.574-31.986H6.87q-1.945 0-3.24-1.067a9 9 0 0 1-2.14-2.558 10.4 10.4 0 0 1-1.167-3.2Q0 7.962 0 6.54q0-2.844 1.75-4.69Q3.5-.001 6.482 0h13.095q2.592 0 4.148.853 1.556.854 2.463 2.132a8.6 8.6 0 0 1 1.297 2.701q.39 1.422.648 2.417.26 1.138.519 3.199t.518 4.193q.39 2.559.778 5.403z"/></svg>
