<svg xmlns="http://www.w3.org/2000/svg" width="32" height="32"><path d="M16 6.457c-4.502 0-8.251 1.226-10.948 2.509S.65 11.629.407 11.813l-.406.306L15.961 32l.422-.422.015-.019 15.603-19.44-.406-.306c-.244-.184-1.948-1.565-4.645-2.847s-6.446-2.508-10.948-2.508zm0 .986c4.323 0 7.927 1.178 10.525 2.412 2.345 1.115 3.52 2.076 4.041 2.478l-7.649 9.53c-.364-.269-.93-.662-1.838-1.095-1.26-.601-2.998-1.169-5.079-1.169s-3.817.567-5.077 1.169c-.907.433-1.474.826-1.838 1.095l-7.651-9.53c.521-.401 1.696-1.363 4.041-2.478C8.073 8.62 11.677 7.443 16 7.443z"/></svg>
