<svg xmlns="http://www.w3.org/2000/svg" width="32" height="32"><path d="M16 6.305c-4.502 0-8.251 1.226-10.948 2.508S.65 11.476.407 11.66l-.406.306 5.835 7.269-.031.023c1.197 1.437 2.368 2.897 3.544 4.353l6.611 8.236.121.152.329-.61L32 11.966l-.406-.306c-.244-.184-1.948-1.565-4.645-2.847s-6.446-2.508-10.948-2.508zm0 .986c4.323 0 7.927 1.178 10.525 2.412 2.345 1.115 3.52 2.076 4.041 2.478l-5.177 6.451c-.446-.338-1.258-.926-2.595-1.563-1.686-.804-4.009-1.563-6.792-1.563s-5.108.759-6.794 1.563c-.929.417-1.762.988-2.576 1.586l-5.198-6.474c.521-.401 1.696-1.363 4.041-2.478C8.073 8.468 11.677 7.291 16 7.291z"/></svg>
