<svg xmlns="http://www.w3.org/2000/svg" viewBox="0 0 512 512"><path d="M481.662 131.125A8.53 8.53 0 0 0 470.004 128l-31.646 18.27c-2.366-8.991 3.032-24.644 6.433-31.566 2.075-4.225.338-9.337-3.883-11.421-4.233-2.079-9.338-.35-11.421 3.867-1.53 3.091-14.087 29.549-6.145 47.789l-54.428 31.423c-7.557-21.976 6.225-58.486 12.71-71.649a8.537 8.537 0 0 0-3.875-11.429c-4.204-2.079-9.333-.354-11.425 3.867-1.139 2.305-26.438 54.263-12.352 87.837l-25.452 14.695c-3.395-6.627-5.133-14.029-4.391-20.857l1.762-16.179c1.85-17.046-5.275-23.863-9.688-26.408-4.4-2.546-13.879-5.3-27.717 4.817l-12.63 9.608c-3.967 2.905-9.234 4.849-13.501 5.867v-22.338c34.133-6.774 64.954-52.047 66.339-54.125 2.612-3.921 1.306-9.221-2.615-11.833-3.929-2.629-8.853-1.554-11.462 2.367-7.772 11.659-30.929 39.751-52.262 46.096V58.333c17.067-5.475 30.478-25.408 32.205-28 2.612-3.921 1.306-9.221-2.615-11.833-3.929-2.621-8.845-1.558-11.461 2.367-3.406 5.109-11.729 14.103-18.129 18.778V8.533a8.534 8.534 0 0 0-17.066 0v31.091c-8.533-4.681-15.579-13.66-18.999-18.766-2.625-3.921-8.173-4.971-12.081-2.346-3.917 2.617-4.603 7.904-1.991 11.821 1.726 2.592 13.871 22.525 33.071 28v68.357c-23.467-6.357-45.338-34.44-53.132-46.095-2.621-3.921-8.173-4.979-12.081-2.358-3.917 2.617-4.603 7.908-1.991 11.829 1.383 2.078 30.938 47.351 67.204 54.125v22.338c-6.4-1.018-10.524-2.961-14.491-5.867l-13.373-9.608c-13.838-10.121-23.432-7.371-27.841-4.817-4.411 2.546-11.599 9.362-9.749 26.408l1.727 16.179c.542 4.96-.254 10.223-2.012 15.275l-17.28-9.972c13.303-33.594-11.59-84.693-12.718-86.978-2.089-4.225-7.214-5.967-11.427-3.867a8.54 8.54 0 0 0-3.876 11.429c6.397 12.985 19.9 48.694 13.009 70.753L122.204 171l-33.825-18.544c5.899-18.067-5.634-42.353-7.096-45.306a8.526 8.526 0 0 0-11.433-3.867 8.537 8.537 0 0 0-3.867 11.433c3.135 6.336 7.965 20.045 6.877 29.231l-29.256-16.039a8.53 8.53 0 0 0-11.588 3.379c-2.267 4.133-.75 9.321 3.379 11.587l25.183 13.806c-7.394 2.964-16.46 4.51-21.638 4.856-4.7.317-8.258 4.379-7.95 9.075a8.53 8.53 0 0 0 9.058 7.958c2.924-.189 24.458-1.912 38.118-12.248l35.666 19.552 23.82 13.753c-17.103 14.669-51.037 20.14-64.574 21.03-4.7.313-8.267 4.371-7.958 9.071a8.535 8.535 0 0 0 9.062 7.962c2.439-.158 54.807-3.839 78.849-29.184l17.898 10.333c-3.432 3.883-7.495 7.048-11.926 9.001l-14.883 6.567c-15.692 6.917-18.033 16.5-18.033 21.591 0 5.096 2.342 14.675 18.029 21.592l14.892 6.567c1.912.844 3.748 1.93 5.504 3.184l-16.357 10.394c-25.581-21.257-71.687-24.504-73.972-24.653-4.775-.292-8.758 3.267-9.062 7.962-.304 4.7 3.258 8.762 7.958 9.071 12.35.809 41.692 5.427 59.728 17.373L72.57 345.763c-13.289-7.18-29.972-8.518-32.52-8.682-4.721-.279-8.762 3.267-9.067 7.967-.304 4.704 3.267 8.763 7.967 9.067 3.894.251 9.995 1.184 15.929 2.891l-21.725 13.805c-3.979 2.529-5.154 7.804-2.629 11.779a8.54 8.54 0 0 0 11.78 2.629l29.092-18.486c4.581 8.181-1.653 26.556-5.417 34.216a8.54 8.54 0 0 0 7.655 12.304 8.53 8.53 0 0 0 7.65-4.75c1.604-3.242 15.358-32.2 4.846-50.413-.102-.176-.218-.341-.324-.514l59.207-37.622c11.507 21.113-3.816 62.006-10.762 76.106a8.537 8.537 0 0 0 7.646 12.312 8.53 8.53 0 0 0 7.654-4.75c1.196-2.421 29.079-59.638 9.95-92.771l-.047-.074 16.579-10.535c4.132 7.128 6.323 15.385 5.501 22.934l-1.759 16.175c-1.85 17.046 5.275 23.863 9.688 26.408 4.417 2.554 13.887 5.308 27.716-4.817l13.62-9.608c3.967-2.905 8.091-4.849 14.491-5.867v30.871c-36.267 6.774-65.945 52.047-67.328 54.125-2.612 3.921-1.802 9.221 2.119 11.833 1.454.971 2.977 1.433 4.602 1.433 2.758 0 5.895-1.333 7.541-3.8 7.772-11.659 29.6-39.751 53.067-46.096v59.829c-19.2 5.475-31.468 25.408-33.195 28-2.612 3.921-1.802 9.221 2.119 11.833 1.454.971 2.977 1.433 4.602 1.433 2.758 0 5.895-1.333 7.541-3.8 3.406-5.109 10.4-14.103 18.933-18.778v31.111a8.533 8.533 0 0 0 17.066 0V472.37c6.4 4.681 14.59 13.66 18.009 18.766 2.625 3.904 7.665 4.963 11.586 2.346 3.917-2.617 5.347-7.904 2.734-11.821-1.727-2.592-15.263-22.525-32.329-28v-59.823c21.333 6.356 44.348 34.439 52.143 46.094 2.617 3.917 7.665 4.967 11.585 2.358 3.917-2.617 5.347-7.908 2.734-11.829-1.384-2.078-32.329-47.351-66.463-54.125v-30.871c4.267 1.018 9.534 2.962 13.501 5.867l12.877 9.608c7.508 5.492 13.605 7.196 18.431 7.196 4.066 0 7.083-1.213 9.1-2.379 4.413-2.546 11.506-9.363 9.656-26.412l-1.777-16.171c-.644-5.91.571-12.25 3.106-18.147l28.14 16.248c-17.079 33.37 9.762 88.502 10.936 90.878a8.533 8.533 0 0 0 11.431 3.867c4.225-2.088 5.954-7.208 3.867-11.433-6.82-13.79-21.689-53.265-11.455-74.776l53.241 30.739c-8.082 18.248 4.543 44.851 6.077 47.95a8.525 8.525 0 0 0 11.421 3.867c4.221-2.083 5.958-7.196 3.883-11.421-3.423-6.966-8.867-22.773-6.385-31.738l25.123 14.504a8.533 8.533 0 1 0 8.533-14.783l-19.051-10.999c6.767-2.288 14.283-3.515 18.818-3.818 4.7-.317 8.258-4.379 7.95-9.075-.308-4.7-4.308-8.3-9.058-7.958-2.752.178-21.975 1.721-35.618 10.511l-53.237-30.736c17.906-12.561 48.298-17.38 60.93-18.208 4.7-.308 8.262-4.371 7.958-9.071-.304-4.696-4.296-8.221-9.062-7.962-2.336.152-50.468 3.544-75.65 26.105l-29.148-16.829c2.934-2.847 6.233-5.177 9.769-6.734l14.883-6.567c15.687-6.917 18.033-16.496 18.033-21.592s-2.342-14.675-18.029-21.591l-14.892-6.567c-2.621-1.155-5.114-2.735-7.425-4.634l24.294-14.026c24.328 24.724 75.747 28.353 78.165 28.51a8.535 8.535 0 0 0 9.062-7.962c.308-4.7-3.258-8.758-7.958-9.071-13.341-.878-46.503-6.196-63.832-20.388l55.977-32.317c13.651 8.884 33.018 10.439 35.78 10.618a8.533 8.533 0 0 0 9.066-7.966c.304-4.704-3.267-8.762-7.967-9.067-4.585-.296-12.225-1.534-19.053-3.877l25.77-14.877c4.082-2.356 5.478-7.572 3.124-11.656M339.771 243.458l14.892 6.567c6.483 2.858 7.85 5.562 7.85 5.975s-1.367 3.117-7.854 5.975l-14.883 6.567c-20.738 9.142-35.062 33.954-32.612 56.483l1.763 16.171c.767 7.046-.892 9.579-1.25 9.788-.35.2-3.379.383-9.104-3.812l-13.125-9.608c-9.146-6.692-20.879-10.038-32.612-10.038s-23.471 3.346-32.612 10.038l-13.125 9.608c-5.729 4.196-8.75 4-9.1 3.812-.358-.208-2.021-2.742-1.254-9.788l1.758-16.171c2.45-22.529-11.871-47.337-32.604-56.483l-14.892-6.567c-6.487-2.858-7.85-5.558-7.85-5.975 0-.412 1.363-3.117 7.854-5.975l14.883-6.567c20.742-9.146 35.063-33.954 32.608-56.479l-1.758-16.175c-.767-7.046.892-9.579 1.25-9.787.358-.196 3.388-.379 9.104 3.812l13.125 9.608c18.292 13.383 46.942 13.383 65.225 0l13.125-9.608c5.725-4.196 8.742-4.017 9.1-3.812.358.208 2.021 2.742 1.254 9.783l-1.763 16.179c-2.448 22.534 11.877 47.342 32.607 56.479"/><path d="m307.475 248.192-23.312-10.279 2.754-25.333a8.53 8.53 0 0 0-4.217-8.313 8.5 8.5 0 0 0-9.308.508l-20.559 15.05-20.558-15.05a8.54 8.54 0 0 0-9.308-.508 8.54 8.54 0 0 0-4.217 8.313l2.754 25.333-23.312 10.279A8.53 8.53 0 0 0 193.1 256a8.53 8.53 0 0 0 5.092 7.808l23.312 10.279-2.754 25.333a8.53 8.53 0 0 0 4.217 8.312 8.56 8.56 0 0 0 9.308-.508l20.558-15.05 20.559 15.05a8.54 8.54 0 0 0 9.309.508 8.53 8.53 0 0 0 4.217-8.312l-2.754-25.333 23.312-10.279a8.533 8.533 0 0 0-.001-15.616m-35.913 12.8a8.535 8.535 0 0 0-5.042 8.729l1.338 12.304-9.983-7.308a8.5 8.5 0 0 0-5.042-1.65c-1.771 0-3.542.55-5.042 1.65l-9.983 7.308 1.337-12.304a8.535 8.535 0 0 0-5.042-8.729L222.783 256l11.321-4.992a8.535 8.535 0 0 0 5.042-8.729l-1.337-12.304 9.983 7.308c3 2.2 7.083 2.2 10.083 0l9.983-7.308-1.338 12.304a8.535 8.535 0 0 0 5.042 8.729L282.883 256z"/></svg>
