<svg viewBox="0 0 64 64"><path d="M17 31.973c0 8.295 6.716 15.02 15 15.02s15-6.725 15-15.02-6.716-15.02-15-15.02-15 6.724-15 15.02m28 0c0 7.178-5.832 13.018-13 13.018s-13-5.84-13-13.018 5.832-13.018 13-13.018 13 5.84 13 13.018M32.742 11.77a1 1 0 0 0 1-1.001V1a1 1 0 1 0-2 0v9.768a1 1 0 0 0 1 1.001zm15.903-7.111a.995.995 0 0 0-1.367.365l-4.883 8.457a1.001 1.001 0 0 0 1.73 1.004l4.884-8.458a1 1 0 0 0-.364-1.368m2.117 18.37a1 1 0 0 0 .499-.134l8.458-4.884c.477-.276.642-.889.366-1.368a1 1 0 0 0-1.366-.367L50.26 21.16a1.003 1.003 0 0 0 .5 1.869zm-38.994 9.713a1 1 0 0 0-1-1.001H1a1 1 0 0 0-1 1.001 1 1 0 0 0 1 1.002h9.768a1 1 0 0 0 1-1.002M4.282 18.011l8.458 4.884a1 1 0 0 0 1.366-.367 1.003 1.003 0 0 0-.366-1.368l-8.458-4.884a1 1 0 0 0-1.366.367 1.003 1.003 0 0 0 .366 1.368m16.459-3.027a1.002 1.002 0 0 0 .865-1.502l-4.882-8.458a1 1 0 0 0-1.367-.366c-.478.278-.642.89-.366 1.368l4.883 8.458c.186.322.522.5.867.5m12.001 37.248a1 1 0 0 0-1 1.001V63a1 1 0 1 0 2 0v-9.766a1 1 0 0 0-1-1.001zm-10.215-2.338a.995.995 0 0 0-1.366.364l-4.884 8.458a1.001 1.001 0 0 0 .865 1.503 1 1 0 0 0 .866-.5l4.884-8.457a1 1 0 0 0-.365-1.368m-9.045-7.502-8.458 4.884a1.003 1.003 0 0 0 .501 1.869 1 1 0 0 0 .5-.134l8.457-4.884c.478-.276.643-.889.367-1.368a1 1 0 0 0-1.367-.367M63 31.74h-9.766a1 1 0 0 0-1 1.002 1 1 0 0 0 1 1.002H63a1 1 0 0 0 1-1.002 1 1 0 0 0-1-1.001zm-4.024 15.536-8.458-4.884a1 1 0 0 0-1.367.367 1.003 1.003 0 0 0 .367 1.368l8.458 4.884a.997.997 0 0 0 1.366-.367 1.003 1.003 0 0 0-.366-1.368m-16.138 2.982a.996.996 0 0 0-1.366-.364 1 1 0 0 0-.365 1.368l4.884 8.458a.997.997 0 0 0 1.366.364c.478-.276.642-.888.365-1.368z"/></svg>