<svg xmlns="http://www.w3.org/2000/svg" viewBox="0 0 178346 333333"><path d="M45860 129194h53930V40774c0-7408-3036-14148-7926-19039-4891-4891-11631-7926-19039-7926s-14148 3035-19039 7926c-4890 4890-7926 11630-7926 19039zm87217-91407c-3813 0-6905-3092-6905-6905s3092-6905 6905-6905h38365c3813 0 6905 3092 6905 6905s-3092 6905-6905 6905zm0 38981c-3813 0-6905-3092-6905-6905s3092-6905 6905-6905h38365c3813 0 6905 3092 6905 6905s-3092 6905-6905 6905zm0 38981c-3813 0-6905-3092-6905-6905s3092-6905 6905-6905h38365c3813 0 6905 3091 6905 6905 0 3813-3092 6905-6905 6905zm0 38980c-3813 0-6905-3092-6905-6905s3092-6905 6905-6905h38365c3813 0 6905 3092 6905 6905s-3092 6905-6905 6905zm0 38981c-3813 0-6905-3092-6905-6905s3092-6905 6905-6905h38365c3813 0 6905 3092 6905 6905s-3092 6905-6905 6905zm-19477 8260c18627 13058 30807 34685 30807 59160 0 39876-32326 72202-72203 72202S1 301006 1 261130c0-25016 12723-47058 32050-60015V40773c0-11220 4585-21416 11972-28802C51410 4584 61605-1 72825-1s21416 4585 28803 11972 11972 17582 11972 28802v161196z"/></svg>
