<svg xmlns="http://www.w3.org/2000/svg" viewBox="0 0 728 1280"><path d="M357.5 3.7c-49.9 45.2-77.2 76.1-106.8 120.9-85.2 128.9-112.2 286.8-79.1 462.4 13.7 72.7 39.6 152.1 70.9 217.6l6.4 13.4h226.2l6.9-14.4c38-79.6 67.1-178 77.9-263.6 7.1-56.3 8-116 2.5-165-11.6-103.9-47.3-195.9-107.3-276.5-24.2-32.4-49.9-60.1-84.7-91.3-4.4-3.9-8.3-7.2-8.5-7.2s-2.2 1.7-4.4 3.7m22.2 307.8c38.6 7.3 68.2 34.7 78.5 72.5 2 7.4 2.3 10.7 2.2 25.5 0 19.4-1.5 26.4-8.2 40.9-5.4 11.5-11.2 19.8-20.1 28.7a101.2 101.2 0 0 1-45.3 26.2c-7 1.8-10.9 2.2-24.8 2.2-19.6-.1-27.6-1.8-43.5-9.6-26.9-13.1-46.2-37.5-53.1-67.4-2.8-11.8-2.6-32.9.4-44.9 8.3-33.2 33.4-60.2 66.1-71.1 13.5-4.4 33.5-5.7 47.8-3m-3.2 228c3.9.8 11.2 3.5 16.3 6 26.4 13.1 41.5 43.5 35.8 72.5a68.87 68.87 0 0 1-44.8 51.7c-10.6 3.8-27.3 4.4-38.1 1.4-19.9-5.4-35.5-18-44.1-35.6-4.7-9.4-6.8-18.9-6.7-30.5 0-11.5 1.8-18.8 7.3-30 3.3-6.9 5.8-10.1 12.7-17 5.3-5.3 10.9-9.8 14.6-11.7 5.8-3 16.4-6.8 21.5-7.6 5.8-1 19-.6 25.5.8m-3.6 165c22.1 5.3 37.9 28.5 34.2 50.5-2.2 13.3-8.8 23.9-19.1 30.9-14.3 9.5-32.1 10.7-47.1 3-5.2-2.6-14.5-11.4-17.6-16.6-13.2-22.6-5-52.2 17.9-63.9 10.3-5.3 20.4-6.5 31.7-3.9m178.3-47.3c-2.3 7.3-6.7 23.8-9.7 36.7-9 38.2-17.9 62.6-38.7 105.3-5.6 11.5-9.9 21-9.7 21.2 1.5 1.3 25 16.6 43.4 28.3 78.6 49.9 129.4 75.5 160.4 80.8 23.6 4.1 32.9-5.6 27.5-28.5-6.5-28-33.7-75.6-79.4-139.5-21.7-30.2-81.7-109.2-88.4-116.3-1-1-2.1 1.5-5.4 12m-393.9 5C99.9 734.8 52.4 801.4 27.5 844.5c-9.3 16-20 38.7-23.6 49.8-2.7 8.3-3.3 11.8-3.4 18.9 0 9.3 1.1 11.9 6.7 16.1 3.4 2.6 15.5 3.4 24 1.7 24.3-4.7 66-24.5 119.8-56.8 29.4-17.7 82-51.5 82-52.8 0-.4-4.1-8.9-9-19-14.3-29.1-24.2-52.6-30.5-72.4-1.4-4.7-5.6-20.4-9.1-35-5.9-24.3-12.9-49-13.9-49-.2 0-6.1 7.3-13.2 16.2m110.6 179.5c-30.9 32.4-54 74.1-64.9 117.2-5.9 23.4-8.1 41.4-8.1 67.1 0 23.9 1.6 39.1 6.7 62 2.8 12.4 12.1 42 13.3 42 .4 0 1.7-3.9 3-8.8 14.5-56.2 31.6-93.9 46.5-102.7 5.8-3.4 12.4-3.4 18.2 0 24.1 14.1 49.2 91.6 73.4 226.5 2.8 15.7 5.3 29.6 5.7 31 .6 2.8.3 4.3 7.3-34.5 21.5-119.2 43.7-192.5 65.4-216.2 6.6-7.2 10.4-9.3 16.6-9.3 17.5 0 35.2 31.9 52.6 94.8 5.9 21.7 5.3 20.1 6.6 17.9 1.8-3.3 7.8-22 10.8-33.7 11.8-46.2 11.6-95.2-.5-139.5-11.5-41.8-33.9-82.1-62-111.4l-9.7-10.1H275.3z"/></svg>
