<svg xmlns="http://www.w3.org/2000/svg" viewBox="0 0 1000 1000"><g stroke="#000" stroke-width="25"><path d="M15.28 167.05L10 172.12v216.05l5.28 5.07 5.07 5.29H811.4l5.07-5.29c4.44-4.23 5.29-7.19 5.29-16.91V364.7h28.54c27.69 0 28.96-.21 33.82-5.29 4.44-4.23 5.29-7.19 5.29-16.91v-12.05l24.1.85c27.06.63 32.34 2.96 39.74 16.49 3.59 6.98 3.8 12.47 3.38 86.67-.63 79.06-.63 79.27-5.49 86.25-2.75 3.59-6.98 8.03-9.51 9.51-3.59 1.9-98.09 2.75-442.24 3.59l-437.6 1.07-9.94 4.65c-12.89 5.92-30.23 23.25-36.15 36.15-4.44 9.51-4.65 12.47-4.65 76.53 0 66.38 0 66.59 5.29 77.16 6.55 13.53 21.35 28.33 34.88 34.88l10.57 5.29 312.44.63 312.23.42v11.84c0 9.51.85 12.47 5.29 16.7 4.86 5.08 6.13 5.29 33.82 5.29h28.54v11.63c0 9.72.85 12.68 5.29 16.91l5.07 5.29h148.4l5.07-5.29c4.44-4.23 5.28-7.19 5.28-16.91v-11.63h27.69c15.22 0 29.17-.85 31.29-2.11 6.55-3.38 9.72-13.74 6.55-21.14-1.48-3.59-4.44-7.4-6.55-8.46-2.11-1.27-16.07-2.11-31.29-2.11h-27.69v-33.82h27.69c15.22 0 29.17-.85 31.29-2.11 6.55-3.38 9.72-13.74 6.55-21.14-1.48-3.59-4.44-7.4-6.55-8.46-2.11-1.27-16.07-2.11-31.29-2.11h-27.69v-11.63c0-9.72-.85-12.68-5.28-16.91l-5.07-5.29h-148.4l-5.07 5.27c-4.44 4.23-5.29 7.19-5.29 16.91v11.63h-28.54c-27.69 0-28.96.21-33.82 5.29-4.44 4.23-5.29 7.19-5.29 16.91v11.63H377.19c-296.8 0-309.48-.21-316.46-4.02-4.02-2.11-9.3-6.34-11.63-9.51-4.02-5.5-4.23-9.3-4.86-68.49-.63-69.34-.21-72.09 12.89-81.6l5.92-4.44 438.01-1.06 438.01-1.06 10.57-5.29c13.53-6.55 28.33-21.35 34.88-34.88l5.29-10.57v-167l-5.29-10.57c-6.55-13.53-21.35-28.33-34.88-34.88-8.88-4.44-14.38-5.28-35.3-5.92l-24.94-.85V285c0-9.3-1.06-12.26-5.29-16.49-4.86-5.07-6.13-5.29-33.82-5.29h-28.54v-45.45c0-45.66 0-45.66-5.29-50.73l-5.07-5.29H20.36l-5.08 5.3zm772.65 113.1v84.56H43.82V195.59h744.11v84.56zm67.65 33.82v16.91h-33.82v-33.82h33.82v16.91zm33.82 439.7v50.74H787.93V702.94H889.4v50.73zm-135.29 0v16.91h-33.82v-33.82h33.82v16.91z"/><path d="M82.93 234.7c-5.28 5.07-5.28 5.5-5.28 45.45s0 40.38 5.28 45.45l5.07 5.29h182.22l5.07-5.29c5.29-5.07 5.29-5.5 5.29-45.45s0-40.38-5.29-45.45l-5.07-5.29H88l-5.07 5.29zm163.83 45.45v16.91h-135.3v-33.82h135.3v16.91zM454.99 302.35c-10.57 10.36-3.17 28.54 11.63 28.54 8.67 0 16.91-8.24 16.91-16.91s-8.24-16.91-16.91-16.91c-4.02-.01-8.46 1.89-11.63 5.28zM522.63 302.35c-3.38 3.17-5.28 7.61-5.28 11.63s1.9 8.46 5.28 11.63c3.17 3.38 7.61 5.29 11.63 5.29s8.46-1.9 11.63-5.29c3.38-3.17 5.29-7.61 5.29-11.63s-1.9-8.46-5.29-11.63c-3.17-3.38-7.61-5.29-11.63-5.29s-8.46 1.9-11.63 5.29zM590.28 302.35c-3.38 3.17-5.28 7.61-5.28 11.63s1.9 8.46 5.28 11.63c3.17 3.38 7.61 5.29 11.63 5.29s8.46-1.9 11.63-5.29c3.38-3.17 5.29-7.61 5.29-11.63s-1.9-8.46-5.29-11.63c-3.17-3.38-7.61-5.29-11.63-5.29s-8.46 1.9-11.63 5.29zM652.64 313.97v16.91h67.64v-33.82h-67.64v16.91z"/></g></svg>
