<svg viewBox="0 0 1000 1000"><path d="M911.5 119.1h-823c-43.3 0-78.5 37.3-78.5 83.2v498.9c0 45.8 35.2 83.2 78.5 83.2h348.1c-.8 4-1.2 8-1.2 12.3V822c0 4.3.4 8.3 1.2 12.3H263.7c-12.2 0-22.1 10.5-22.1 23.4s9.9 23.4 22.1 23.4h472.6c12.2 0 22.1-10.5 22.1-23.4 0-12.9-9.9-23.4-22.1-23.4H563.4c.7-4 1.2-8 1.2-12.3v-25.3c0-4.3-.4-8.3-1.2-12.3h348.1c43.3 0 78.5-37.4 78.5-83.2v-499c0-45.8-35.2-83.1-78.5-83.1zm-391 677.5v25.3c0 6.7-4.3 12.3-9.3 12.3h-22.3c-5 0-9.3-5.6-9.3-12.3v-25.3c0-6.7 4.3-12.3 9.3-12.3h22.3c5 0 9.3 5.6 9.3 12.3zm425.4-95.5c0 20-15.4 36.4-34.3 36.4H88.5c-19 0-34.3-16.3-34.3-36.4V202.2c0-20.1 15.4-36.4 34.3-36.4h823c18.9 0 34.3 16.3 34.3 36.4v498.9z" stroke="#000" stroke-width="25"/></svg>
