<svg viewBox="0 0 1000 1000"><path d="M849.9 942.8c-2.2-21.1-19.1-39.1-41.2-39.3-18.3-.1-21.3-9.2-21.2-24.1.2-33.6-.5-67.3 0-101 .4-34.9-12.7-63.6-35.9-89.1-39.2-42.8-76.3-87.4-116.3-129.3-40.2-42-39.8-78.3-.8-119.2 39.8-42 77-86.7 116.2-129.4 24.5-26.6 37.4-56.7 36.8-93-.8-33.6.1-67.3-.2-100.9-.2-14 4.7-20.4 20-20.9 23.4-.8 41-18.7 42.5-40.3 1.5-19.5-14.2-39.2-36.2-44.4-6.9-1.7-14.3-1.8-21.3-1.8-194.6-.1-389.3-.1-584 .1-8.4 0-17.2.6-25.4 2.8-20.9 5.7-35.1 25.4-33.1 44.3 2.3 21.5 18.8 39.2 41 39.3 18.3.1 21.3 9.2 21.2 24.1-.3 33.6.4 67.2 0 100.9-.4 34.8 12.7 63.5 35.9 89.1 42.4 46.6 84.2 93.7 125.6 141.1 29.7 33.9 29.6 62.8-.6 97.2-41.6 47.4-83.3 94.5-125.6 141.2-22.7 25-35.6 53.1-35.3 87.1.4 32.9-.4 65.8.2 98.8.3 17.7-3 28.1-24.5 27.7-19.4-.3-35.9 17.4-37.4 37.9-1.7 19.4 6.8 35.4 25.3 42.9 9.7 3.9 20.9 5.1 31.4 5.2 97.4.4 194.6.2 292 .2 97.3 0 194.6.1 291.9-.2 9.1 0 18.8-.8 27.5-3.4 19.8-5.8 33.4-25.8 31.5-43.6m-147.1-61.7c.4 17.1-6.7 22.2-23 22-60.2-.7-120.3-.3-180.3-.3-56.6 0-113.1.1-169.5 0-32.4 0-32.4-.1-32.5-33.5-.1-18.6 1.7-37.4-.4-55.7-4.3-35.1 8.9-61.4 32.8-86.2 39.1-40.8 75.9-83.7 113.3-126.1 52.8-59.8 51.7-144.2-2.1-205-42.2-47.6-85.4-94.4-126.4-143.2-9.6-11.4-15.2-28.9-16.5-44.1-2.6-29.1-.2-58.6-1-87.9-.5-17 4.6-24.3 23.1-24.2 120.2.6 240.3.5 360.6.1 15.4-.1 22.3 4.8 21.9 20.8-.6 32.2 1.2 64.5-.8 96.6-.8 12.5-6.4 27-14.4 36.4-41.3 48.4-83.8 95.8-126.5 143.1-57.5 63.8-57.8 147.7-.7 211.5 42.5 47.4 85.2 94.7 126.3 143.2 8.6 9.9 14.3 25 15.2 38.2 2.1 31.3.1 62.9.9 94.3"/></svg>