<svg xmlns="http://www.w3.org/2000/svg" viewBox="0 0 350 350"><circle cx="174.486" cy="127.565" r="32.734"/><path d="M116.562 58.147a8.12 8.12 0 00-11.494 0c-38.269 38.269-38.269 100.559 0 138.844 1.585 1.585 3.666 2.382 5.747 2.382s4.162-.797 5.747-2.382c3.178-3.178 3.178-8.324 0-11.494-31.937-31.953-31.937-83.919 0-115.857 3.178-3.178 3.178-8.323 0-11.493zM232.41 196.991c1.585 1.585 3.666 2.382 5.747 2.382s4.162-.797 5.747-2.382c18.549-18.549 28.759-43.203 28.759-69.426 0-26.231-10.218-50.877-28.759-69.418a8.12 8.12 0 00-11.494 0 8.12 8.12 0 000 11.494c15.477 15.469 23.996 36.05 23.996 57.924s-8.519 42.456-23.996 57.932c-3.178 3.17-3.178 8.316 0 11.494zM286.425 250.997a8.107 8.107 0 005.747 2.382 8.107 8.107 0 005.747-2.382c68.061-68.061 68.061-178.812 0-246.873-3.178-3.178-8.316-3.178-11.494 0s-3.178 8.324 0 11.494c61.728 61.728 61.728 162.157 0 223.885a8.133 8.133 0 000 11.494zM62.539 4.124a8.12 8.12 0 00-11.494 0c-68.061 68.061-68.061 178.812 0 246.873 1.585 1.585 3.666 2.382 5.747 2.382s4.162-.797 5.747-2.382a8.12 8.12 0 000-11.494C.811 177.775.811 77.346 62.539 15.618c3.178-3.17 3.178-8.315 0-11.494zM166.357 191.935v147.16a8.121 8.121 0 008.129 8.129 8.121 8.121 0 008.129-8.129v-147.16a8.121 8.121 0 00-8.129-8.129 8.122 8.122 0 00-8.129 8.129z"/></svg>
