<svg xmlns="http://www.w3.org/2000/svg" viewBox="0 0 148 148"><g fill="#1d1d1b"><path d="M48.712 94.208a7.5 7.5 0 0010.607 10.606c7.98-7.98 20.967-7.98 28.947 0 1.465 1.464 3.385 2.197 5.304 2.197s3.839-.732 5.304-2.197a7.5 7.5 0 000-10.606c-13.83-13.83-36.332-13.83-50.162 0z"/><path d="M26.73 72.225a7.5 7.5 0 0010.607 10.606c20.102-20.102 52.811-20.102 72.912 0 1.465 1.464 3.385 2.197 5.304 2.197s3.839-.732 5.304-2.197a7.5 7.5 0 000-10.606c-25.951-25.95-68.176-25.95-94.127 0z"/><path d="M145.39 47.692c-39.479-39.479-103.715-39.479-143.193 0a7.5 7.5 0 0010.607 10.606c16.29-16.291 37.95-25.262 60.989-25.262s44.699 8.972 60.989 25.262c1.465 1.464 3.385 2.197 5.304 2.197s3.839-.732 5.304-2.197a7.5 7.5 0 000-10.606z"/><circle cx="73.793" cy="121.272" r="8.231"/></g></svg>
